<svg
              width="24"
              height="24"
              viewBox="0 0 38 38"
              fill="none"
              xmlns="http://www.w3.org/2000/svg"
            >
              <path
                d="M31.0333 33.25L21.0583 23.275C20.2667 23.9083 19.3562 24.4097 18.3271 24.7792C17.2979 25.1486 16.2028 25.3333 15.0417 25.3333C12.1653 25.3333 9.73117 24.3369 7.73933 22.344C5.7475 20.3511 4.75106 17.917 4.75 15.0417C4.75 12.1653 5.74644 9.73117 7.73933 7.73933C9.73222 5.7475 12.1663 4.75106 15.0417 4.75C17.9181 4.75 20.3522 5.74644 22.344 7.73933C24.3358 9.73222 25.3323 12.1663 25.3333 15.0417C25.3333 16.2028 25.1486 17.2979 24.7792 18.3271C24.4097 19.3562 23.9083 20.2667 23.275 21.0583L33.25 31.0333L31.0333 33.25ZM15.0417 22.1667C17.0208 22.1667 18.7034 21.4737 20.0893 20.0878C21.4753 18.7018 22.1677 17.0198 22.1667 15.0417C22.1667 13.0625 21.4737 11.3799 20.0878 9.994C18.7018 8.60806 17.0198 7.91561 15.0417 7.91667C13.0625 7.91667 11.3799 8.60964 9.994 9.99558C8.60806 11.3815 7.91561 13.0636 7.91667 15.0417C7.91667 17.0208 8.60964 18.7034 9.99558 20.0893C11.3815 21.4753 13.0636 22.1677 15.0417 22.1667Z"
                fill="#FBFCFD"
                fill-opacity="0.5"
              />
            </svg>