<svg width="55" height="55" viewBox="0 0 55 55" fill="none" xmlns="http://www.w3.org/2000/svg">
<path d="M6.87502 43.5417C5.61461 43.5417 4.53523 43.0925 3.6369 42.1942C2.73857 41.2959 2.29016 40.2173 2.29169 38.9584V16.0417C2.29169 14.7813 2.74086 13.7019 3.63919 12.8036C4.53752 11.9053 5.61614 11.4569 6.87502 11.4584H29.7917C31.0521 11.4584 32.1315 11.9075 33.0298 12.8059C33.9282 13.7042 34.3766 14.7828 34.375 16.0417V38.9584C34.375 40.2188 33.9259 41.2982 33.0275 42.1965C32.1292 43.0948 31.0506 43.5432 29.7917 43.5417H6.87502ZM38.9584 43.5417V11.4584H43.5417V43.5417H38.9584ZM48.125 43.5417V11.4584H52.7084V43.5417H48.125Z" fill="#FBFCFD"/>
</svg>
