<svg width="24" height="24" viewBox="0 0 24 24" fill="none" xmlns="http://www.w3.org/2000/svg">
<path d="M12 22C10.3333 22 8.82899 21.6457 7.48699 20.937C6.14499 20.2283 4.97432 19.2243 3.97499 17.925L8.04999 13.85L10.35 15.775C10.55 15.9417 10.7793 16.0167 11.038 16C11.2967 15.9833 11.5173 15.8833 11.7 15.7L16 11.4V13C16 13.2833 16.096 13.521 16.288 13.713C16.48 13.905 16.7173 14.0007 17 14C17.2833 14 17.521 13.904 17.713 13.712C17.905 13.52 18.0007 13.2827 18 13V9C18 8.71667 17.904 8.479 17.712 8.287C17.52 8.095 17.2827 7.99933 17 8H13C12.7167 8 12.479 8.096 12.287 8.288C12.095 8.48 11.9993 8.71733 12 9C12 9.28333 12.096 9.521 12.288 9.713C12.48 9.905 12.7173 10.0007 13 10H14.6L10.95 13.65L8.64999 11.725C8.44999 11.5583 8.22065 11.4833 7.96199 11.5C7.70332 11.5167 7.48266 11.6167 7.29999 11.8L2.92499 16.175C2.59166 15.4083 2.33766 14.5873 2.16299 13.712C1.98832 12.8367 1.95066 11.9327 2.04999 11C2.29999 8.46667 3.36666 6.33333 5.24999 4.6C7.13332 2.86667 9.38332 2 12 2C13.3833 2 14.6793 2.26267 15.888 2.788C17.0967 3.31333 18.1547 4.03 19.062 4.938C19.9707 5.846 20.6873 6.90433 21.212 8.113C21.7367 9.32167 21.9993 10.6173 22 12C22 13.3667 21.7373 14.6583 21.212 15.875C20.6867 17.0917 19.97 18.1543 19.062 19.063C18.154 19.971 17.0957 20.6877 15.887 21.213C14.6783 21.7383 13.3827 22.0007 12 22Z" fill="#FBFCFD"/>
</svg>
